<svg xmlns="http://www.w3.org/2000/svg" viewBox="0 0 241.16 170.09" version="1.0"><g stroke="#000" stroke-width="5"><path d="M2.5 71.9l63.11 95.69c20.36-28.5 67.18-46.83 93.65-40.72 32.57-22.39 69.22-18.32 79.4-10.18l-73.29-95.68s-50.9-14.25-71.26 16.28C57.47 21.01 12.68 47.47 2.5 71.9z" fill-rule="evenodd"/><path d="M10.3 59.28l54.97 83.47c22.39-40.72 67.18-59.04 89.58-32.57 34.61-48.87 75.32 0 79.39 0l-73.29-99.76s-48.86-22.4-69.22 8.14C71.38 2.27 22.52 22.63 10.3 59.28z" fill-rule="evenodd" fill="#fff"/><path d="M93.09 18.97l63.12 85.51c8.14 12.21-8.15 34.61 26.46 48.86" fill="none"/></g></svg>